<svg width="180" height="70" viewBox="0 0 337 67" fill="none" xmlns="http://www.w3.org/2000/svg">
<path d="M49.4236 15.9181C49.1101 15.2331 48.7701 14.5618 48.4043 13.9059C31.5155 17.5548 11.0541 27.1534 2.03939 41.3747C4.25782 45.5791 7.47016 49.1159 11.3683 51.6456C19.209 35.7425 39.4906 19.7163 49.4236 15.9181ZM46.8777 11.4559C42.0328 4.51294 34.2043 0 25.3667 0C13.945 0 4.20612 7.53457 0.421387 18.1175C14.0652 11.0158 35.3693 9.62363 46.8777 11.4559ZM27.5723 55.7084C41.2495 54.5324 52.0013 42.5384 52.0013 27.9055C52.0051 24.2121 51.3072 20.555 49.9484 17.1471C40.6673 27.086 31.3395 41.5747 27.5723 55.7084ZM5.73533 26.2292H6.57278V34.2328H5.73533V26.2292Z" fill="#4E9525"/>
<path d="M4.66274 20.0277C6.15313 21.4928 6.63858 24.6348 6.55138 26.2175C9.51356 23.6967 6.25097 18.8595 3.66365 18.2428C3.83912 19.4728 3.72054 20.611 3.54508 21.6276C3.16224 23.8699 4.16133 26.0559 5.77827 26.2347C5.82081 25.0994 6.15313 23.4939 4.66274 20.0277Z" fill="#4E9525"/>
<path d="M1.33398 26.974C2.21982 26.5501 4.46046 26.7506 5.42765 27.0186C3.73414 24.3346 0.681038 25.9963 0.000976562 27.296C0.814498 27.4286 1.50785 27.7484 2.11347 28.0793C3.44861 28.8107 5.03577 28.5723 5.4856 27.4877C4.77736 27.2253 2.3554 26.9545 1.33398 26.974ZM9.84034 25.7557C9.62978 26.7484 8.1245 28.5032 7.34022 29.1478C10.4034 29.3528 10.9798 25.798 10.3997 24.4465C9.80737 25.0465 9.14539 25.4331 8.5286 25.739C7.16475 26.4136 6.39058 27.886 6.94409 28.9138C7.57471 28.4815 9.24163 26.6192 9.84034 25.7557ZM23.9568 46.609H24.7943V54.6127H23.9568V46.609Z" fill="#4E9525"/>
<path d="M22.8854 40.4076C24.3758 41.8727 24.8612 45.0147 24.774 46.5962C27.7368 44.0765 24.4736 39.2383 21.8863 38.6227C22.0618 39.8527 21.9427 40.992 21.7677 42.007C21.3849 44.2487 22.384 46.4364 24.0009 46.6146C24.0429 45.4793 24.3753 43.8732 22.8854 40.4076Z" fill="#4E9525"/>
<path d="M19.5561 47.3539C20.4419 46.9288 22.6826 47.1305 23.6492 47.3979C21.9552 44.7139 18.9026 46.3751 18.222 47.6748C19.0356 47.8074 19.7295 48.1271 20.3345 48.458C21.6697 49.1895 23.2568 48.951 23.7067 47.8681C23 47.604 20.5781 47.3344 19.5561 47.3539ZM28.0641 46.135C27.8535 47.1283 26.3488 48.8831 25.5645 49.5276C28.6277 49.7315 29.2046 46.1768 28.624 44.8264C28.0316 45.4253 27.3696 45.8124 26.7529 46.1183C25.3906 46.7923 24.6148 48.2653 25.1694 49.2925C25.7974 48.8602 27.4643 46.9974 28.0641 46.135ZM16.5498 20.0194H17.1586V25.8326H16.5498V20.0194Z" fill="#4E9525"/>
<path d="M15.7714 15.5165C16.8534 16.58 17.2059 18.8618 17.1421 20.0105C19.2945 18.1805 16.9236 14.6669 15.0461 14.2207C15.1737 15.1137 15.0871 15.941 14.9589 16.6786C14.6819 18.3058 15.4066 19.8946 16.5806 20.025C16.612 19.1994 16.8534 18.0328 15.7714 15.5165Z" fill="#4E9525"/>
<path d="M13.3544 20.5603C13.9967 20.2528 15.6249 20.3982 16.3278 20.5926C15.0963 18.6433 12.8807 19.85 12.3867 20.7937C12.9775 20.8901 13.4815 21.1218 13.9207 21.3625C14.8911 21.8945 16.0428 21.7207 16.3693 20.9341C15.8551 20.7413 14.0967 20.5463 13.3544 20.5603ZM19.5329 19.6762C19.3793 20.3965 18.2871 21.6711 17.7177 22.1391C19.9418 22.2872 20.3608 19.7057 19.9402 18.7241C19.509 19.1586 19.0294 19.4405 18.5812 19.6628C17.5906 20.1519 17.0286 21.2226 17.4306 21.968C17.8873 21.6555 19.0985 20.3023 19.5329 19.6762ZM31.0876 36.5369H31.697V42.3518H31.0876V36.5369Z" fill="#4E9525"/>
<path d="M30.3088 32.0346C31.3908 33.098 31.7428 35.3804 31.6806 36.5286C33.8324 34.6985 31.4621 31.1845 29.584 30.7377C29.7122 31.6312 29.6255 32.4591 29.4963 33.1966C29.2198 34.8245 29.9445 36.4127 31.1186 36.5436C31.1499 35.7169 31.3913 34.5509 30.3088 32.0346Z" fill="#4E9525"/>
<path d="M27.8905 37.0801C28.5333 36.7709 30.1609 36.9163 30.8643 37.1118C29.6334 35.162 27.4178 36.3692 26.9238 37.3124C27.5129 37.4093 28.0186 37.6416 28.4583 37.8812C29.4298 38.4121 30.5804 38.2399 30.9074 37.4517C30.3927 37.2606 28.6327 37.065 27.8905 37.0801ZM34.069 36.1938C33.9158 36.9135 32.8237 38.1892 32.2537 38.6577C34.4779 38.8048 34.8963 36.225 34.4763 35.2423C34.0456 35.6773 33.5654 35.9598 33.1177 36.1815C32.1277 36.6706 31.5641 37.7408 31.9671 38.4856C32.4233 38.1725 33.6335 36.8199 34.069 36.1938ZM26.667 16.0574H27.1019V19.9581H26.667V16.0574Z" fill="#4E9525"/>
<path d="M26.0625 13.0363C26.8855 13.7505 27.1525 15.2802 27.1057 16.0518C28.7423 14.824 26.9387 12.4664 25.5095 12.1661C25.6073 12.7667 25.5408 13.3204 25.4435 13.8151C25.2335 14.9076 25.7849 15.9727 26.6782 16.0596C26.7 15.5081 26.8834 14.7248 26.0625 13.0363Z" fill="#4E9525"/>
<path d="M24.2236 16.4212C24.7128 16.2146 25.949 16.312 26.4845 16.4424C25.5487 15.1349 23.8637 15.9438 23.4883 16.5772C23.9376 16.6418 24.3204 16.7978 24.6549 16.9594C25.3929 17.3159 26.2681 17.1989 26.5159 16.6708C26.1256 16.5427 24.7889 16.4129 24.2236 16.4212ZM28.9224 15.8279C28.8059 16.312 27.9765 17.1666 27.541 17.4808C29.2318 17.5794 29.5509 15.8474 29.2308 15.189C28.9027 15.4809 28.5374 15.6708 28.1971 15.8185C27.4442 16.1472 27.0173 16.8647 27.323 17.3661C27.6697 17.1566 28.5917 16.2485 28.9224 15.8279ZM37.7244 27.6415H38.1582V31.5422H37.7244V27.6415Z" fill="#4E9525"/>
<path d="M37.1187 24.6214C37.9417 25.335 38.2103 26.8653 38.1619 27.6358C39.799 26.4091 37.9954 24.0504 36.5673 23.7501C36.6646 24.3507 36.5986 24.905 36.5019 25.4002C36.2913 26.4921 36.8422 27.5572 37.7354 27.6447C37.7578 27.0921 37.9417 26.3099 37.1187 24.6214Z" fill="#4E9525"/>
<path d="M35.2798 28.0052C35.7685 27.7991 37.0058 27.8966 37.5412 28.0264C36.6054 26.7189 34.9199 27.5284 34.5439 28.1612C34.9932 28.2258 35.3766 28.3818 35.7111 28.5434C36.4475 28.9005 37.3232 28.7835 37.5721 28.2554C37.1812 28.1267 35.845 27.9969 35.2798 28.0052ZM39.9791 27.4125C39.8611 27.8966 39.0321 28.7506 38.5961 29.0642C40.2886 29.1634 40.6071 27.4314 40.287 26.7735C39.9584 27.0654 39.5942 27.2537 39.2533 27.4025C38.5015 27.7311 38.0729 28.4487 38.3781 28.9495C38.7264 28.7395 39.6473 27.832 39.9791 27.4125ZM34.9369 14.0803H35.2299V16.7137H34.9369V14.0803Z" fill="#4E9525"/>
<path d="M34.5275 12.042C35.0816 12.5239 35.2629 13.5562 35.2305 14.077C36.3354 13.2475 35.1199 11.6565 34.1537 11.4548C34.2197 11.8598 34.1745 12.2336 34.1096 12.5684C33.9666 13.3055 34.3404 14.0252 34.9428 14.0837C34.9582 13.7099 35.0816 13.1812 34.5275 12.042Z" fill="#4E9525"/>
<path d="M33.2852 14.326C33.6143 14.1867 34.4491 14.2525 34.8117 14.341C34.18 13.4581 33.0427 14.0051 32.7891 14.4318C33.0921 14.4758 33.3527 14.5811 33.5776 14.6898C34.0753 14.9304 34.666 14.8513 34.8319 14.4948C34.5692 14.4079 33.6664 14.321 33.2852 14.326ZM36.4579 13.9254C36.3787 14.2525 35.8166 14.829 35.5258 15.0413C36.6669 15.1081 36.8806 13.9394 36.6653 13.4943C36.4441 13.6915 36.1984 13.819 35.9677 13.9199C35.4599 14.141 35.1722 14.6251 35.3785 14.9639C35.6103 14.8218 36.2346 14.2101 36.4579 13.9254Z" fill="#4E9525"/>
<path d="M93.668 23.5455C94.2977 23.5455 94.8157 23.7371 95.222 24.1202C95.6486 24.5245 95.8619 25.046 95.8619 25.6844C95.8619 26.3016 95.6486 26.8124 95.222 27.2168C94.8157 27.6212 94.2977 27.8233 93.668 27.8233H81.4191V40.976C81.4191 41.6144 81.2058 42.1571 80.7792 42.6041C80.3527 43.051 79.8347 43.2745 79.2253 43.2745C78.5956 43.2745 78.0674 43.051 77.6408 42.6041C77.2143 42.1571 77.001 41.6144 77.001 40.976V10.7122C77.001 10.0311 77.2143 9.46712 77.6408 9.02019C78.0674 8.59454 78.5956 8.38171 79.2253 8.38171H98.4823C99.1526 8.38171 99.6808 8.5839 100.067 8.98827C100.473 9.39264 100.676 9.9247 100.676 10.5845C100.676 11.2017 100.473 11.7018 100.067 12.0849C99.6808 12.468 99.1526 12.6595 98.4823 12.6595H81.4191V23.5455H93.668ZM116.49 18.6612C118.684 18.6612 120.675 19.2039 122.462 20.2893C124.229 21.3747 125.631 22.8645 126.667 24.7586C127.703 26.6528 128.221 28.7598 128.221 31.0796V41.0398C128.221 41.6996 128.018 42.2423 127.612 42.6679C127.205 43.1149 126.687 43.3383 126.058 43.3383C125.428 43.3383 124.91 43.1149 124.504 42.6679C124.077 42.2423 123.864 41.6996 123.864 41.0398V39.4117C122.868 40.6886 121.66 41.6783 120.238 42.3806C118.816 43.1042 117.282 43.466 115.637 43.466C113.585 43.466 111.737 42.934 110.091 41.8698C108.426 40.7844 107.115 39.2946 106.161 37.4005C105.206 35.5063 104.729 33.3994 104.729 31.0796C104.729 28.7598 105.236 26.6528 106.252 24.7586C107.288 22.8645 108.71 21.3747 110.518 20.2893C112.305 19.2039 114.296 18.6612 116.49 18.6612ZM116.49 39.4436C117.912 39.4436 119.202 39.0818 120.36 38.3582C121.518 37.6133 122.422 36.613 123.072 35.3574C123.722 34.0804 124.047 32.6545 124.047 31.0796C124.047 29.5047 123.722 28.0787 123.072 26.8018C122.422 25.5248 121.518 24.5139 120.36 23.769C119.202 23.0454 117.912 22.6836 116.49 22.6836C115.068 22.6836 113.778 23.0454 112.62 23.769C111.483 24.5139 110.579 25.5248 109.909 26.8018C109.238 28.0787 108.903 29.5047 108.903 31.0796C108.903 32.6545 109.238 34.0804 109.909 35.3574C110.579 36.613 111.483 37.6133 112.62 38.3582C113.778 39.0818 115.068 39.4436 116.49 39.4436ZM146.137 18.5654C147.64 18.5654 148.819 18.8102 149.672 19.2997C150.525 19.7679 150.952 20.3638 150.952 21.0874C150.952 21.2789 150.941 21.4279 150.921 21.5343C150.657 22.4708 150.088 22.939 149.215 22.939C149.073 22.939 148.859 22.9177 148.575 22.8751C147.437 22.6623 146.513 22.5559 145.802 22.5559C143.75 22.5559 142.105 23.0454 140.866 24.0244C139.607 25.0034 138.977 26.3336 138.977 28.0149V41.0398C138.977 41.7634 138.804 42.3168 138.459 42.6998C138.093 43.0829 137.555 43.2745 136.844 43.2745C136.153 43.2745 135.625 43.0936 135.259 42.7318C134.894 42.3487 134.711 41.7847 134.711 41.0398V21.0874C134.711 20.3638 134.894 19.8105 135.259 19.4274C135.625 19.0443 136.153 18.8527 136.844 18.8527C138.266 18.8527 138.977 19.5976 138.977 21.0874V21.9174C139.83 20.8746 140.886 20.0552 142.146 19.4593C143.385 18.8634 144.715 18.5654 146.137 18.5654ZM179.959 18.6293C182.437 18.6293 184.438 19.4699 185.961 21.1513C187.485 22.8539 188.247 25.2269 188.247 28.2703V41.0398C188.247 41.6996 188.044 42.2423 187.637 42.6679C187.251 43.1149 186.733 43.3383 186.083 43.3383C185.454 43.3383 184.936 43.1149 184.529 42.6679C184.103 42.2423 183.89 41.6996 183.89 41.0398V28.2703C183.89 26.4613 183.463 25.0779 182.61 24.1202C181.736 23.1837 180.568 22.7155 179.106 22.7155C177.643 22.7155 176.435 23.2582 175.48 24.3436C174.525 25.4078 174.048 26.7805 174.048 28.4618V41.0398C174.048 41.6996 173.845 42.2423 173.438 42.6679C173.052 43.1149 172.524 43.3383 171.854 43.3383C171.244 43.3383 170.727 43.1149 170.3 42.6679C169.894 42.2423 169.691 41.6996 169.691 41.0398V28.2703C169.691 26.4613 169.254 25.0779 168.38 24.1202C167.527 23.1837 166.369 22.7155 164.907 22.7155C163.404 22.7155 162.175 23.2582 161.22 24.3436C160.265 25.4078 159.788 26.7805 159.788 28.4618V41.0398C159.788 41.6996 159.595 42.2423 159.209 42.6679C158.803 43.1149 158.274 43.3383 157.624 43.3383C156.995 43.3383 156.477 43.1149 156.07 42.6679C155.644 42.2423 155.431 41.6996 155.431 41.0398V21.1513C155.431 20.4702 155.644 19.9275 156.07 19.5231C156.477 19.0975 156.995 18.8847 157.624 18.8847C158.254 18.8847 158.762 19.0868 159.148 19.4912C159.554 19.8956 159.767 20.4276 159.788 21.0874C160.539 20.2999 161.423 19.6934 162.439 19.2677C163.454 18.8421 164.561 18.6293 165.76 18.6293C167.222 18.6293 168.523 18.9272 169.66 19.5231C170.818 20.1403 171.762 21.0129 172.494 22.1409C173.347 21.0342 174.413 20.1723 175.693 19.5551C176.973 18.9379 178.395 18.6293 179.959 18.6293ZM213.415 19.14C213.781 19.3316 214.065 19.5763 214.268 19.8743C214.471 20.1935 214.573 20.5447 214.573 20.9278C214.573 21.2045 214.502 21.4918 214.359 21.7897L205.31 41.7741C204.883 42.7531 204.233 43.2425 203.36 43.2425C202.872 43.2425 202.466 43.1255 202.141 42.8914C201.836 42.6786 201.552 42.3061 201.288 41.7741L192.269 21.7897C192.147 21.5556 192.086 21.2896 192.086 20.9916C192.086 20.1829 192.482 19.5657 193.274 19.14C193.538 18.9911 193.843 18.9166 194.188 18.9166C194.513 18.9166 194.838 19.0124 195.163 19.2039C195.468 19.4167 195.712 19.6934 195.895 20.0339L203.299 36.7939L210.642 20.0339C210.805 19.6934 211.059 19.4167 211.404 19.2039C211.729 19.0124 212.074 18.9166 212.44 18.9166C212.806 18.9166 213.131 18.9911 213.415 19.14ZM239.771 30.6965C239.771 31.2498 239.589 31.718 239.223 32.1011C238.857 32.4629 238.39 32.6438 237.821 32.6438H221.611C221.916 34.7295 222.82 36.4108 224.323 37.6878C225.806 38.986 227.634 39.6352 229.808 39.6352C230.661 39.6352 231.545 39.4649 232.459 39.1244C233.393 38.8051 234.155 38.4008 234.744 37.9113C235.15 37.592 235.617 37.4324 236.145 37.4324C236.694 37.4324 237.12 37.5814 237.425 37.8793C237.933 38.3263 238.187 38.8371 238.187 39.4117C238.187 39.9438 237.964 40.3907 237.517 40.7525C236.542 41.5399 235.343 42.1891 233.921 42.6998C232.479 43.2106 231.108 43.466 229.808 43.466C227.472 43.466 225.379 42.934 223.531 41.8698C221.682 40.827 220.24 39.3585 219.204 37.4643C218.168 35.5915 217.65 33.4632 217.65 31.0796C217.65 28.6959 218.138 26.557 219.113 24.6629C220.088 22.7687 221.449 21.3002 223.196 20.2574C224.943 19.1933 226.933 18.6612 229.168 18.6612C231.341 18.6612 233.231 19.172 234.835 20.1935C236.42 21.1938 237.638 22.6091 238.492 24.4394C239.345 26.2484 239.771 28.3341 239.771 30.6965ZM229.168 22.4921C227.076 22.4921 225.39 23.088 224.11 24.2798C222.81 25.4716 221.987 27.0678 221.642 29.0684H235.841C235.597 27.0678 234.886 25.4716 233.708 24.2798C232.55 23.088 231.037 22.4921 229.168 22.4921ZM253.513 18.6612C255.362 18.6612 257.017 18.9698 258.48 19.587C259.942 20.2255 261.1 21.098 261.954 22.2047C262.319 22.673 262.502 23.1412 262.502 23.6094C262.502 24.1202 262.268 24.5884 261.801 25.014C261.476 25.2481 261.07 25.3652 260.582 25.3652C259.851 25.3652 259.191 25.0779 258.602 24.5033C257.891 23.8222 257.129 23.3434 256.317 23.0667C255.524 22.79 254.559 22.6517 253.422 22.6517C252.122 22.6517 251.055 22.8751 250.223 23.3221C249.369 23.7903 248.943 24.4394 248.943 25.2694C248.943 25.8653 249.085 26.3655 249.369 26.7698C249.654 27.1742 250.192 27.5467 250.984 27.8872C251.797 28.2277 252.955 28.5682 254.458 28.9087C257.546 29.5472 259.739 30.4517 261.039 31.6223C262.339 32.7928 262.989 34.2932 262.989 36.1235C262.989 37.5069 262.634 38.7519 261.923 39.8586C261.212 40.9866 260.166 41.8698 258.785 42.5083C257.403 43.1468 255.748 43.466 253.818 43.466C251.888 43.466 250.07 43.1574 248.364 42.5402C246.658 41.9018 245.317 41.0824 244.342 40.0821C243.976 39.6777 243.793 39.2095 243.793 38.6774C243.793 37.9751 244.078 37.4005 244.647 36.9536C245.175 36.5279 245.672 36.3151 246.14 36.3151C246.708 36.3151 247.247 36.5811 247.755 37.1132C248.303 37.7516 249.116 38.2944 250.192 38.7413C251.269 39.2095 252.416 39.4436 253.635 39.4436C255.26 39.4436 256.52 39.1563 257.413 38.5817C258.307 38.0283 258.754 37.2728 258.754 36.3151C258.754 35.3999 258.317 34.6338 257.444 34.0166C256.55 33.3994 255.057 32.8886 252.965 32.4842C247.501 31.3775 244.768 29.0152 244.768 25.3971C244.768 23.9499 245.185 22.7155 246.018 21.694C246.83 20.6937 247.907 19.9381 249.248 19.4274C250.588 18.9166 252.01 18.6612 253.513 18.6612ZM278.438 38.8051C278.946 38.8051 279.372 39.018 279.717 39.4436C280.083 39.8693 280.266 40.4013 280.266 41.0398C280.266 41.6996 280.032 42.2423 279.565 42.6679C279.098 43.0723 278.489 43.2745 277.737 43.2745H276.975C275.574 43.2745 274.304 42.902 273.166 42.1571C272.009 41.391 271.105 40.3481 270.455 39.0286C269.805 37.7304 269.48 36.2619 269.48 34.6231V23.5775H267.499C266.91 23.5775 266.433 23.3966 266.067 23.0348C265.681 22.673 265.488 22.226 265.488 21.694C265.488 21.098 265.681 20.6192 266.067 20.2574C266.433 19.9169 266.91 19.7466 267.499 19.7466H269.48V13.298C269.48 12.6382 269.673 12.1062 270.059 11.7018C270.465 11.2761 270.983 11.0633 271.612 11.0633C272.222 11.0633 272.73 11.2761 273.136 11.7018C273.542 12.1062 273.745 12.6382 273.745 13.298V19.7466H277.371C277.96 19.7466 278.438 19.9169 278.803 20.2574C279.169 20.6192 279.352 21.098 279.352 21.694C279.352 22.226 279.169 22.673 278.803 23.0348C278.438 23.3966 277.96 23.5775 277.371 23.5775H273.745V34.6231C273.745 35.8149 274.05 36.8152 274.659 37.624C275.289 38.4114 276.061 38.8051 276.975 38.8051H278.438ZM297.207 18.6293C299.157 18.6293 300.914 19.0762 302.479 19.9701C304.043 20.8639 305.272 22.1622 306.165 23.8648C307.039 25.5887 307.476 27.6531 307.476 30.058V41.0398C307.476 41.6996 307.272 42.2423 306.866 42.6679C306.44 43.1149 305.922 43.3383 305.312 43.3383C304.683 43.3383 304.165 43.1149 303.758 42.6679C303.332 42.2423 303.118 41.6996 303.118 41.0398V30.058C303.118 27.6531 302.499 25.8228 301.26 24.5671C300.021 23.3327 298.385 22.7155 296.354 22.7155C295.156 22.7155 294.069 22.9709 293.094 23.4817C292.098 23.9925 291.327 24.6842 290.778 25.5567C290.23 26.408 289.955 27.3764 289.955 28.4618V41.0398C289.955 41.6996 289.752 42.2423 289.346 42.6679C288.94 43.1149 288.412 43.3383 287.762 43.3383C287.132 43.3383 286.614 43.1149 286.208 42.6679C285.801 42.2423 285.598 41.6996 285.598 41.0398V21.1193C285.598 20.4383 285.801 19.8849 286.208 19.4593C286.614 19.0549 287.132 18.8527 287.762 18.8527C288.412 18.8527 288.94 19.0549 289.346 19.4593C289.752 19.8849 289.955 20.4383 289.955 21.1193V21.5982C290.849 20.6618 291.926 19.9275 293.185 19.3954C294.445 18.8847 295.785 18.6293 297.207 18.6293ZM325.27 18.6612C327.505 18.6612 329.516 19.1933 331.303 20.2574C333.07 21.3002 334.462 22.7687 335.477 24.6629C336.493 26.5357 337.001 28.6746 337.001 31.0796V40.7525C337.001 43.0936 336.503 45.2325 335.508 47.1692C334.513 49.1059 333.111 50.6382 331.303 51.7662C329.495 52.8729 327.454 53.4263 325.179 53.4263C323.127 53.4263 321.218 53.0006 319.45 52.1493C317.703 51.298 316.231 50.0849 315.032 48.51C314.707 48.1056 314.545 47.6906 314.545 47.265C314.545 46.6478 314.849 46.1157 315.459 45.6688C315.845 45.3921 316.241 45.2538 316.647 45.2538C317.358 45.2538 317.937 45.5624 318.384 46.1795C319.156 47.2224 320.131 48.0205 321.309 48.5738C322.467 49.1272 323.787 49.4039 325.27 49.4039C326.651 49.4039 327.911 49.0527 329.048 48.3504C330.186 47.648 331.1 46.6265 331.791 45.2857C332.481 43.9236 332.827 42.3061 332.827 40.4333V38.2305C331.933 39.8693 330.765 41.1569 329.323 42.0933C327.86 43.0084 326.225 43.466 324.417 43.466C322.304 43.466 320.415 42.934 318.749 41.8698C317.084 40.827 315.794 39.3585 314.88 37.4643C313.945 35.5915 313.478 33.4632 313.478 31.0796C313.478 28.6746 313.976 26.5357 314.971 24.6629C315.967 22.7687 317.368 21.3002 319.176 20.2574C320.964 19.1933 322.995 18.6612 325.27 18.6612ZM325.27 39.4436C326.712 39.4436 328.012 39.0818 329.17 38.3582C330.328 37.6559 331.222 36.6662 331.852 35.3893C332.502 34.1336 332.827 32.697 332.827 31.0796C332.827 29.4834 332.502 28.0362 331.852 26.7379C331.222 25.461 330.328 24.4713 329.17 23.769C328.012 23.0454 326.712 22.6836 325.27 22.6836C323.807 22.6836 322.507 23.0454 321.37 23.769C320.212 24.4713 319.308 25.461 318.658 26.7379C318.008 28.0362 317.683 29.4834 317.683 31.0796C317.683 32.697 318.008 34.1336 318.658 35.3893C319.308 36.6662 320.212 37.6559 321.37 38.3582C322.507 39.0818 323.807 39.4436 325.27 39.4436Z" fill="#4E9525"/>
<path d="M84.603 53.7619C84.603 54.5739 84.323 55.2506 83.763 55.7919C83.2123 56.3239 82.3676 56.5899 81.229 56.5899H79.353V60.6639H78.079V50.9059H81.229C82.3303 50.9059 83.1656 51.1719 83.735 51.7039C84.3136 52.2359 84.603 52.9219 84.603 53.7619ZM81.229 55.5399C81.9383 55.5399 82.461 55.3859 82.797 55.0779C83.133 54.7699 83.301 54.3313 83.301 53.7619C83.301 52.5579 82.6103 51.9559 81.229 51.9559H79.353V55.5399H81.229ZM89.5324 60.7899C88.8137 60.7899 88.1604 60.6266 87.5724 60.2999C86.9937 59.9733 86.5364 59.5113 86.2004 58.9139C85.8737 58.3073 85.7104 57.6073 85.7104 56.8139C85.7104 56.0299 85.8784 55.3393 86.2144 54.7419C86.5597 54.1353 87.0264 53.6733 87.6144 53.3559C88.2024 53.0293 88.8604 52.8659 89.5884 52.8659C90.3164 52.8659 90.9744 53.0293 91.5624 53.3559C92.1504 53.6733 92.6124 54.1306 92.9484 54.7279C93.2937 55.3253 93.4664 56.0206 93.4664 56.8139C93.4664 57.6073 93.2891 58.3073 92.9344 58.9139C92.5891 59.5113 92.1177 59.9733 91.5204 60.2999C90.9231 60.6266 90.2604 60.7899 89.5324 60.7899ZM89.5324 59.6699C89.9897 59.6699 90.4191 59.5626 90.8204 59.3479C91.2217 59.1333 91.5437 58.8113 91.7864 58.3819C92.0384 57.9526 92.1644 57.4299 92.1644 56.8139C92.1644 56.1979 92.0431 55.6753 91.8004 55.2459C91.5577 54.8166 91.2404 54.4993 90.8484 54.2939C90.4564 54.0793 90.0317 53.9719 89.5744 53.9719C89.1077 53.9719 88.6784 54.0793 88.2864 54.2939C87.9037 54.4993 87.5957 54.8166 87.3624 55.2459C87.1291 55.6753 87.0124 56.1979 87.0124 56.8139C87.0124 57.4393 87.1244 57.9666 87.3484 58.3959C87.5817 58.8253 87.8897 59.1473 88.2724 59.3619C88.6551 59.5673 89.0751 59.6699 89.5324 59.6699ZM105.361 52.9919L102.967 60.6639H101.651L99.8035 54.5739L97.9555 60.6639H96.6395L94.2315 52.9919H95.5335L97.2975 59.4319L99.2015 52.9919H100.503L102.365 59.4459L104.101 52.9919H105.361ZM113.626 56.5339C113.626 56.7766 113.612 57.0333 113.584 57.3039H107.452C107.499 58.0599 107.755 58.6526 108.222 59.0819C108.698 59.5019 109.272 59.7119 109.944 59.7119C110.495 59.7119 110.952 59.5859 111.316 59.3339C111.689 59.0726 111.951 58.7273 112.1 58.2979H113.472C113.267 59.0353 112.856 59.6373 112.24 60.1039C111.624 60.5613 110.859 60.7899 109.944 60.7899C109.216 60.7899 108.563 60.6266 107.984 60.2999C107.415 59.9733 106.967 59.5113 106.64 58.9139C106.313 58.3073 106.15 57.6073 106.15 56.8139C106.15 56.0206 106.309 55.3253 106.626 54.7279C106.943 54.1306 107.387 53.6733 107.956 53.3559C108.535 53.0293 109.197 52.8659 109.944 52.8659C110.672 52.8659 111.316 53.0246 111.876 53.3419C112.436 53.6593 112.865 54.0979 113.164 54.6579C113.472 55.2086 113.626 55.8339 113.626 56.5339ZM112.31 56.2679C112.31 55.7826 112.203 55.3673 111.988 55.0219C111.773 54.6673 111.479 54.4013 111.106 54.2239C110.742 54.0373 110.336 53.9439 109.888 53.9439C109.244 53.9439 108.693 54.1493 108.236 54.5599C107.788 54.9706 107.531 55.5399 107.466 56.2679H112.31ZM116.581 54.2379C116.805 53.7993 117.123 53.4586 117.533 53.2159C117.953 52.9733 118.462 52.8519 119.059 52.8519V54.1679H118.723C117.295 54.1679 116.581 54.9426 116.581 56.4919V60.6639H115.307V52.9919H116.581V54.2379ZM127.53 56.5339C127.53 56.7766 127.516 57.0333 127.488 57.3039H121.356C121.403 58.0599 121.659 58.6526 122.126 59.0819C122.602 59.5019 123.176 59.7119 123.848 59.7119C124.399 59.7119 124.856 59.5859 125.22 59.3339C125.593 59.0726 125.855 58.7273 126.004 58.2979H127.376C127.171 59.0353 126.76 59.6373 126.144 60.1039C125.528 60.5613 124.763 60.7899 123.848 60.7899C123.12 60.7899 122.467 60.6266 121.888 60.2999C121.319 59.9733 120.871 59.5113 120.544 58.9139C120.217 58.3073 120.054 57.6073 120.054 56.8139C120.054 56.0206 120.213 55.3253 120.53 54.7279C120.847 54.1306 121.291 53.6733 121.86 53.3559C122.439 53.0293 123.101 52.8659 123.848 52.8659C124.576 52.8659 125.22 53.0246 125.78 53.3419C126.34 53.6593 126.769 54.0979 127.068 54.6579C127.376 55.2086 127.53 55.8339 127.53 56.5339ZM126.214 56.2679C126.214 55.7826 126.107 55.3673 125.892 55.0219C125.677 54.6673 125.383 54.4013 125.01 54.2239C124.646 54.0373 124.24 53.9439 123.792 53.9439C123.148 53.9439 122.597 54.1493 122.14 54.5599C121.692 54.9706 121.435 55.5399 121.37 56.2679H126.214ZM128.736 56.7999C128.736 56.0159 128.894 55.3299 129.212 54.7419C129.529 54.1446 129.963 53.6826 130.514 53.3559C131.074 53.0293 131.699 52.8659 132.39 52.8659C132.987 52.8659 133.542 53.0059 134.056 53.2859C134.569 53.5566 134.961 53.9159 135.232 54.3639V50.3039H136.52V60.6639H135.232V59.2219C134.98 59.6793 134.606 60.0573 134.112 60.3559C133.617 60.6453 133.038 60.7899 132.376 60.7899C131.694 60.7899 131.074 60.6219 130.514 60.2859C129.963 59.9499 129.529 59.4786 129.212 58.8719C128.894 58.2653 128.736 57.5746 128.736 56.7999ZM135.232 56.8139C135.232 56.2353 135.115 55.7313 134.882 55.3019C134.648 54.8726 134.331 54.5459 133.93 54.3219C133.538 54.0886 133.104 53.9719 132.628 53.9719C132.152 53.9719 131.718 54.0839 131.326 54.3079C130.934 54.5319 130.621 54.8586 130.388 55.2879C130.154 55.7173 130.038 56.2213 130.038 56.7999C130.038 57.3879 130.154 57.9013 130.388 58.3399C130.621 58.7693 130.934 59.1006 131.326 59.3339C131.718 59.5579 132.152 59.6699 132.628 59.6699C133.104 59.6699 133.538 59.5579 133.93 59.3339C134.331 59.1006 134.648 58.7693 134.882 58.3399C135.115 57.9013 135.232 57.3926 135.232 56.8139ZM143.679 54.4199C143.94 53.9626 144.323 53.5893 144.827 53.2999C145.331 53.0106 145.905 52.8659 146.549 52.8659C147.24 52.8659 147.86 53.0293 148.411 53.3559C148.962 53.6826 149.396 54.1446 149.713 54.7419C150.03 55.3299 150.189 56.0159 150.189 56.7999C150.189 57.5746 150.03 58.2653 149.713 58.8719C149.396 59.4786 148.957 59.9499 148.397 60.2859C147.846 60.6219 147.23 60.7899 146.549 60.7899C145.886 60.7899 145.303 60.6453 144.799 60.3559C144.304 60.0666 143.931 59.6979 143.679 59.2499V60.6639H142.405V50.3039H143.679V54.4199ZM148.887 56.7999C148.887 56.2213 148.77 55.7173 148.537 55.2879C148.304 54.8586 147.986 54.5319 147.585 54.3079C147.193 54.0839 146.759 53.9719 146.283 53.9719C145.816 53.9719 145.382 54.0886 144.981 54.3219C144.589 54.5459 144.272 54.8773 144.029 55.3159C143.796 55.7453 143.679 56.2446 143.679 56.8139C143.679 57.3926 143.796 57.9013 144.029 58.3399C144.272 58.7693 144.589 59.1006 144.981 59.3339C145.382 59.5579 145.816 59.6699 146.283 59.6699C146.759 59.6699 147.193 59.5579 147.585 59.3339C147.986 59.1006 148.304 58.7693 148.537 58.3399C148.77 57.9013 148.887 57.3879 148.887 56.7999ZM158.474 52.9919L153.854 64.2759H152.538L154.05 60.5799L150.956 52.9919H152.37L154.778 59.2079L157.158 52.9919H158.474ZM164.565 59.5579H169.325V60.6639H163.053V59.6559L167.785 52.0119H163.109V50.9059H169.297V51.9139L164.565 59.5579ZM177.865 52.9919V60.6639H176.591V59.5299C176.349 59.9219 176.008 60.2299 175.569 60.4539C175.14 60.6686 174.664 60.7759 174.141 60.7759C173.544 60.7759 173.007 60.6546 172.531 60.4119C172.055 60.1599 171.677 59.7866 171.397 59.2919C171.127 58.7973 170.991 58.1953 170.991 57.4859V52.9919H172.251V57.3179C172.251 58.0739 172.443 58.6573 172.825 59.0679C173.208 59.4693 173.731 59.6699 174.393 59.6699C175.075 59.6699 175.611 59.4599 176.003 59.0399C176.395 58.6199 176.591 58.0086 176.591 57.2059V52.9919H177.865ZM181.29 54.2379C181.514 53.7993 181.832 53.4586 182.242 53.2159C182.662 52.9733 183.171 52.8519 183.768 52.8519V54.1679H183.432C182.004 54.1679 181.29 54.9426 181.29 56.4919V60.6639H180.016V52.9919H181.29V54.2379ZM185.897 51.7459C185.654 51.7459 185.449 51.6619 185.281 51.4939C185.113 51.3259 185.029 51.1206 185.029 50.8779C185.029 50.6353 185.113 50.4299 185.281 50.2619C185.449 50.0939 185.654 50.0099 185.897 50.0099C186.13 50.0099 186.326 50.0939 186.485 50.2619C186.653 50.4299 186.737 50.6353 186.737 50.8779C186.737 51.1206 186.653 51.3259 186.485 51.4939C186.326 51.6619 186.13 51.7459 185.897 51.7459ZM186.513 52.9919V60.6639H185.239V52.9919H186.513Z" fill="#4E9525"/>
</svg>
